<svg xmlns="http://www.w3.org/2000/svg" style="display: none;">
    <symbol id="twitter" height="100%" style="fill-rule:evenodd;clip-rule:evenodd;stroke-linejoin:round;stroke-miterlimit:2;" version="1.1" viewBox="0 0 512 512" width="100%" xml:space="preserve" xmlns="http://www.w3.org/2000/svg" xmlns:serif="http://www.serif.com/" xmlns:xlink="http://www.w3.org/1999/xlink"><path d="M449.446,0c34.525,0 62.554,28.03 62.554,62.554l0,386.892c0,34.524 -28.03,62.554 -62.554,62.554l-386.892,0c-34.524,0 -62.554,-28.03 -62.554,-62.554l0,-386.892c0,-34.524 28.029,-62.554 62.554,-62.554l386.892,0Zm-253.927,424.544c135.939,0 210.268,-112.643 210.268,-210.268c0,-3.218 0,-6.437 -0.153,-9.502c14.406,-10.421 26.973,-23.448 36.935,-38.314c-13.18,5.824 -27.433,9.809 -42.452,11.648c15.326,-9.196 26.973,-23.602 32.49,-40.92c-14.252,8.429 -30.038,14.56 -46.896,17.931c-13.487,-14.406 -32.644,-23.295 -53.946,-23.295c-40.767,0 -73.87,33.104 -73.87,73.87c0,5.824 0.613,11.494 1.992,16.858c-61.456,-3.065 -115.862,-32.49 -152.337,-77.241c-6.284,10.881 -9.962,23.601 -9.962,37.088c0,25.594 13.027,48.276 32.95,61.456c-12.107,-0.307 -23.448,-3.678 -33.41,-9.196l0,0.92c0,35.862 25.441,65.594 59.311,72.49c-6.13,1.686 -12.72,2.606 -19.464,2.606c-4.751,0 -9.348,-0.46 -13.946,-1.38c9.349,29.426 36.628,50.728 68.965,51.341c-25.287,19.771 -57.164,31.571 -91.8,31.571c-5.977,0 -11.801,-0.306 -17.625,-1.073c32.337,21.15 71.264,33.41 112.95,33.41Z"/></symbol>

    
    <symbol id="instagram" height="100%" style="fill-rule:evenodd;clip-rule:evenodd;stroke-linejoin:round;stroke-miterlimit:2;" version="1.1" viewBox="0 0 512 512" width="100%" xml:space="preserve" xmlns="http://www.w3.org/2000/svg" xmlns:serif="http://www.serif.com/" xmlns:xlink="http://www.w3.org/1999/xlink"><path d="M449.446,0c34.525,0 62.554,28.03 62.554,62.554l0,386.892c0,34.524 -28.03,62.554 -62.554,62.554l-386.892,0c-34.524,0 -62.554,-28.03 -62.554,-62.554l0,-386.892c0,-34.524 28.029,-62.554 62.554,-62.554l386.892,0Zm-193.446,81c-47.527,0 -53.487,0.201 -72.152,1.053c-18.627,0.85 -31.348,3.808 -42.48,8.135c-11.508,4.472 -21.267,10.456 -30.996,20.184c-9.729,9.729 -15.713,19.489 -20.185,30.996c-4.326,11.132 -7.284,23.853 -8.135,42.48c-0.851,18.665 -1.052,24.625 -1.052,72.152c0,47.527 0.201,53.487 1.052,72.152c0.851,18.627 3.809,31.348 8.135,42.48c4.472,11.507 10.456,21.267 20.185,30.996c9.729,9.729 19.488,15.713 30.996,20.185c11.132,4.326 23.853,7.284 42.48,8.134c18.665,0.852 24.625,1.053 72.152,1.053c47.527,0 53.487,-0.201 72.152,-1.053c18.627,-0.85 31.348,-3.808 42.48,-8.134c11.507,-4.472 21.267,-10.456 30.996,-20.185c9.729,-9.729 15.713,-19.489 20.185,-30.996c4.326,-11.132 7.284,-23.853 8.134,-42.48c0.852,-18.665 1.053,-24.625 1.053,-72.152c0,-47.527 -0.201,-53.487 -1.053,-72.152c-0.85,-18.627 -3.808,-31.348 -8.134,-42.48c-4.472,-11.507 -10.456,-21.267 -20.185,-30.996c-9.729,-9.728 -19.489,-15.712 -30.996,-20.184c-11.132,-4.327 -23.853,-7.285 -42.48,-8.135c-18.665,-0.852 -24.625,-1.053 -72.152,-1.053Zm0,31.532c46.727,0 52.262,0.178 70.715,1.02c17.062,0.779 26.328,3.63 32.495,6.025c8.169,3.175 13.998,6.968 20.122,13.091c6.124,6.124 9.916,11.954 13.091,20.122c2.396,6.167 5.247,15.433 6.025,32.495c0.842,18.453 1.021,23.988 1.021,70.715c0,46.727 -0.179,52.262 -1.021,70.715c-0.778,17.062 -3.629,26.328 -6.025,32.495c-3.175,8.169 -6.967,13.998 -13.091,20.122c-6.124,6.124 -11.953,9.916 -20.122,13.091c-6.167,2.396 -15.433,5.247 -32.495,6.025c-18.45,0.842 -23.985,1.021 -70.715,1.021c-46.73,0 -52.264,-0.179 -70.715,-1.021c-17.062,-0.778 -26.328,-3.629 -32.495,-6.025c-8.169,-3.175 -13.998,-6.967 -20.122,-13.091c-6.124,-6.124 -9.917,-11.953 -13.091,-20.122c-2.396,-6.167 -5.247,-15.433 -6.026,-32.495c-0.842,-18.453 -1.02,-23.988 -1.02,-70.715c0,-46.727 0.178,-52.262 1.02,-70.715c0.779,-17.062 3.63,-26.328 6.026,-32.495c3.174,-8.168 6.967,-13.998 13.091,-20.122c6.124,-6.123 11.953,-9.916 20.122,-13.091c6.167,-2.395 15.433,-5.246 32.495,-6.025c18.453,-0.842 23.988,-1.02 70.715,-1.02Zm0,53.603c-49.631,0 -89.865,40.234 -89.865,89.865c0,49.631 40.234,89.865 89.865,89.865c49.631,0 89.865,-40.234 89.865,-89.865c0,-49.631 -40.234,-89.865 -89.865,-89.865Zm0,148.198c-32.217,0 -58.333,-26.116 -58.333,-58.333c0,-32.217 26.116,-58.333 58.333,-58.333c32.217,0 58.333,26.116 58.333,58.333c0,32.217 -26.116,58.333 -58.333,58.333Zm114.416,-151.748c0,11.598 -9.403,20.999 -21.001,20.999c-11.597,0 -20.999,-9.401 -20.999,-20.999c0,-11.598 9.402,-21 20.999,-21c11.598,0 21.001,9.402 21.001,21Z"/></symbol>

    <symbol id="facebook" height="100%" style="fill-rule:evenodd;clip-rule:evenodd;stroke-linejoin:round;stroke-miterlimit:2;" version="1.1" viewBox="0 0 512 512" width="100%" xml:space="preserve" xmlns="http://www.w3.org/2000/svg" xmlns:serif="http://www.serif.com/" xmlns:xlink="http://www.w3.org/1999/xlink"><path d="M449.446,0c34.525,0 62.554,28.03 62.554,62.554l0,386.892c0,34.524 -28.03,62.554 -62.554,62.554l-106.468,0l0,-192.915l66.6,0l12.672,-82.621l-79.272,0l0,-53.617c0,-22.603 11.073,-44.636 46.58,-44.636l36.042,0l0,-70.34c0,0 -32.71,-5.582 -63.982,-5.582c-65.288,0 -107.96,39.569 -107.96,111.204l0,62.971l-72.573,0l0,82.621l72.573,0l0,192.915l-191.104,0c-34.524,0 -62.554,-28.03 -62.554,-62.554l0,-386.892c0,-34.524 28.029,-62.554 62.554,-62.554l386.892,0Z"/></symbol>

    <symbol id="castaway" width="149" height="33" viewBox="0 0 149 33" fill="none" xmlns="http://www.w3.org/2000/svg">
<rect width="149" height="33" fill="#E5E5E5"/>
<g id="Desktop" clip-path="url(#clip0_0_1)">
<rect width="1440" height="5135" transform="translate(-51 -38)" fill="#191919"/>
<g id="Header">
<g id="Logo" clip-path="url(#clip1_0_1)">
<path id="logo" d="M11.6087 25.42C9.30714 25.42 7.33122 24.895 5.68104 23.845C4.03086 22.7717 2.76065 21.29 1.87042 19.4C0.980181 17.4867 0.535069 15.2817 0.535069 12.785C0.535069 10.2883 0.980181 8.08333 1.87042 6.17C2.76065 4.25667 4.03086 2.76333 5.68104 1.69C7.33122 0.616665 9.30714 0.079998 11.6087 0.079998C14.3445 0.079998 16.5809 0.814997 18.318 2.285C20.0767 3.73167 21.1732 5.77333 21.6075 8.41H17.0152C16.733 7.08 16.1249 6.04167 15.1913 5.295C14.2794 4.525 13.0634 4.14 11.5435 4.14C9.43741 4.14 7.7872 4.91 6.59299 6.45C5.39878 7.99 4.80167 10.1017 4.80167 12.785C4.80167 15.4683 5.39878 17.58 6.59299 19.12C7.7872 20.6367 9.43741 21.395 11.5435 21.395C13.0634 21.395 14.2794 21.045 15.1913 20.345C16.1249 19.6217 16.733 18.63 17.0152 17.37H21.6075C21.1732 19.89 20.0767 21.8617 18.318 23.285C16.5809 24.7083 14.3445 25.42 11.6087 25.42ZM30.1181 25.42C28.7284 25.42 27.5885 25.1867 26.6983 24.72C25.808 24.23 25.1458 23.5883 24.7116 22.795C24.2773 22.0017 24.0602 21.1267 24.0602 20.17C24.0602 18.56 24.6464 17.2533 25.8189 16.25C26.9914 15.2467 28.7502 14.745 31.0952 14.745H35.1989V14.325C35.1989 13.135 34.884 12.26 34.2544 11.7C33.6247 11.14 32.843 10.86 31.9094 10.86C31.0626 10.86 30.3243 11.0817 29.6947 11.525C29.065 11.945 28.6741 12.575 28.5222 13.415H24.451C24.5595 12.155 24.9503 11.0583 25.6235 10.125C26.3183 9.19167 27.2085 8.48 28.2942 7.99C29.3798 7.47667 30.5957 7.22 31.942 7.22C34.2435 7.22 36.0565 7.83833 37.3811 9.075C38.7055 10.3117 39.3678 12.0617 39.3678 14.325V25H35.8177L35.4269 22.2C34.9492 23.1333 34.2761 23.9033 33.4076 24.51C32.5608 25.1167 31.4642 25.42 30.1181 25.42ZM31.0626 21.92C32.2568 21.92 33.1796 21.5 33.831 20.66C34.5041 19.82 34.9275 18.7817 35.1012 17.545H31.5511C30.4438 17.545 29.6512 17.7667 29.1736 18.21C28.6958 18.63 28.457 19.155 28.457 19.785C28.457 20.4617 28.6958 20.9867 29.1736 21.36C29.6512 21.7333 30.2809 21.92 31.0626 21.92ZM49.3715 25.42C47.9384 25.42 46.679 25.175 45.5934 24.685C44.5077 24.1717 43.6392 23.4717 42.9879 22.585C42.3365 21.6983 41.9456 20.6717 41.8154 19.505H46.0168C46.1471 20.1817 46.4945 20.765 47.059 21.255C47.6453 21.7217 48.3944 21.955 49.3063 21.955C50.2183 21.955 50.8805 21.7567 51.2931 21.36C51.7273 20.9633 51.9444 20.5083 51.9444 19.995C51.9444 19.2483 51.6404 18.7467 51.0325 18.49C50.4245 18.21 49.5777 17.9417 48.4921 17.685C47.7972 17.5217 47.0916 17.3233 46.3751 17.09C45.6585 16.8567 44.9963 16.565 44.3883 16.215C43.8021 15.8417 43.3243 15.375 42.9553 14.815C42.5861 14.2317 42.4016 13.52 42.4016 12.68C42.4016 11.14 42.9661 9.845 44.0952 8.795C45.2459 7.745 46.8527 7.22 48.9155 7.22C50.8262 7.22 52.3461 7.69833 53.4752 8.655C54.6259 9.61167 55.3099 10.93 55.5271 12.61H51.5862C51.3473 11.3267 50.4463 10.685 48.8829 10.685C48.1013 10.685 47.4932 10.8483 47.059 11.175C46.6464 11.5017 46.4402 11.91 46.4402 12.4C46.4402 12.9133 46.755 13.3217 47.3847 13.625C48.0143 13.9283 48.8503 14.2083 49.8926 14.465C51.0216 14.745 52.053 15.06 52.9867 15.41C53.942 15.7367 54.702 16.2383 55.2665 16.915C55.831 17.5683 56.1133 18.5133 56.1133 19.75C56.135 20.8233 55.8745 21.7917 55.3317 22.655C54.7888 23.5183 54.0071 24.195 52.9867 24.685C51.9661 25.175 50.7611 25.42 49.3715 25.42ZM65.844 25C64.1504 25 62.7932 24.5567 61.7728 23.67C60.7523 22.7833 60.242 21.2083 60.242 18.945V11.385H57.4736V7.64H60.242L60.7306 2.985H64.4109V7.64H68.7752V11.385H64.4109V18.98C64.4109 19.82 64.5738 20.4033 64.8995 20.73C65.2468 21.0333 65.8331 21.185 66.6582 21.185H68.6775V25H65.844ZM77.2725 25.42C75.8829 25.42 74.743 25.1867 73.8527 24.72C72.9624 24.23 72.3003 23.5883 71.866 22.795C71.4317 22.0017 71.2146 21.1267 71.2146 20.17C71.2146 18.56 71.8008 17.2533 72.9733 16.25C74.1458 15.2467 75.9046 14.745 78.2496 14.745H82.3533V14.325C82.3533 13.135 82.0385 12.26 81.4088 11.7C80.7791 11.14 79.9974 10.86 79.0638 10.86C78.217 10.86 77.4788 11.0817 76.8491 11.525C76.2194 11.945 75.8286 12.575 75.6766 13.415H71.6054C71.714 12.155 72.1048 11.0583 72.7779 10.125C73.4728 9.19167 74.3629 8.48 75.4486 7.99C76.5343 7.47667 77.7502 7.22 79.0964 7.22C81.3979 7.22 83.211 7.83833 84.5355 9.075C85.8599 10.3117 86.5222 12.0617 86.5222 14.325V25H82.9722L82.5813 22.2C82.1037 23.1333 81.4305 23.9033 80.562 24.51C79.7152 25.1167 78.6187 25.42 77.2725 25.42ZM78.217 21.92C79.4112 21.92 80.334 21.5 80.9854 20.66C81.6585 19.82 82.0819 18.7817 82.2556 17.545H78.7056C77.5982 17.545 76.8056 17.7667 76.328 18.21C75.8503 18.63 75.6115 19.155 75.6115 19.785C75.6115 20.4617 75.8503 20.9867 76.328 21.36C76.8056 21.7333 77.4353 21.92 78.217 21.92ZM92.8493 25L88.1268 7.64H92.2631L95.0637 20.135L98.3206 7.64H102.946L106.202 20.135L109.036 7.64H113.172L108.417 25H104.085L100.633 12.015L97.1807 25H92.8493ZM119.894 25.42C118.504 25.42 117.364 25.1867 116.474 24.72C115.584 24.23 114.922 23.5883 114.487 22.795C114.054 22.0017 113.836 21.1267 113.836 20.17C113.836 18.56 114.422 17.2533 115.595 16.25C116.767 15.2467 118.526 14.745 120.871 14.745H124.975V14.325C124.975 13.135 124.66 12.26 124.03 11.7C123.401 11.14 122.619 10.86 121.685 10.86C120.838 10.86 120.1 11.0817 119.47 11.525C118.841 11.945 118.45 12.575 118.298 13.415H114.227C114.336 12.155 114.726 11.0583 115.399 10.125C116.094 9.19167 116.985 8.48 118.07 7.99C119.156 7.47667 120.372 7.22 121.718 7.22C124.02 7.22 125.833 7.83833 127.157 9.075C128.482 10.3117 129.143 12.0617 129.143 14.325V25H125.593L125.203 22.2C124.725 23.1333 124.052 23.9033 123.183 24.51C122.336 25.1167 121.24 25.42 119.894 25.42ZM120.838 21.92C122.033 21.92 122.955 21.5 123.607 20.66C124.28 19.82 124.704 18.7817 124.877 17.545H121.327C120.219 17.545 119.428 17.7667 118.949 18.21C118.472 18.63 118.233 19.155 118.233 19.785C118.233 20.4617 118.472 20.9867 118.949 21.36C119.428 21.7333 120.057 21.92 120.838 21.92ZM133.949 32.7L137.694 23.845H136.717L130.431 7.64H134.958L139.486 19.855L144.208 7.64H148.638L138.378 32.7H133.949Z" fill="white"/>
</g>
</g>
</g>
<defs>
<clipPath id="clip0_0_1">
<rect width="1440" height="5135" fill="white" transform="translate(-51 -38)"/>
</clipPath>
<clipPath id="clip1_0_1">
<rect width="148.889" height="33" fill="white"/>
</clipPath>
</defs>
</symbol>



<symbol id="close-modal" height="20px" version="1.1"  xmlns="http://www.w3.org/2000/svg" xmlns:sketch="http://www.bohemiancoding.com/sketch/ns" xmlns:xlink="http://www.w3.org/1999/xlink"><title/><desc/><defs/><g fill="none" fill-rule="evenodd" id="Page-1" stroke="none" stroke-width="1"><g fill="#000000" id="Core" transform="translate(-380.000000, -44.000000)"><g id="cancel" transform="translate(380.000000, 44.000000)"><path d="M10,0 C4.5,0 0,4.5 0,10 C0,15.5 4.5,20 10,20 C15.5,20 20,15.5 20,10 C20,4.5 15.5,0 10,0 L10,0 Z M15,13.6 L13.6,15 L10,11.4 L6.4,15 L5,13.6 L8.6,10 L5,6.4 L6.4,5 L10,8.6 L13.6,5 L15,6.4 L11.4,10 L15,13.6 L15,13.6 Z" id="Shape"/></g></g></g></symbol>

</svg>
